<mxfile host="app.diagrams.net" modified="2021-12-28T21:15:32.717Z" agent="5.0 (X11; Linux x86_64) AppleWebKit/537.36 (KHTML, like Gecko) Chrome/96.0.4664.45 Safari/537.36" etag="o-RHEajcdUiKj5mUkMjp" version="16.1.0" type="github">
  <diagram id="C5RBs43oDa-KdzZeNtuy" name="Page-1">
    <mxGraphModel dx="1497" dy="876" grid="1" gridSize="10" guides="1" tooltips="1" connect="1" arrows="1" fold="1" page="1" pageScale="1" pageWidth="3300" pageHeight="4681" math="0" shadow="0">
      <root>
        <mxCell id="WIyWlLk6GJQsqaUBKTNV-0" />
        <mxCell id="WIyWlLk6GJQsqaUBKTNV-1" parent="WIyWlLk6GJQsqaUBKTNV-0" />
        <mxCell id="jNdyc2vnMrTo6YjB5sLs-2" value="PersonDocument" style="swimlane;fontStyle=1;align=center;verticalAlign=top;childLayout=stackLayout;horizontal=1;startSize=26;horizontalStack=0;resizeParent=1;resizeParentMax=0;resizeLast=0;collapsible=1;marginBottom=0;" parent="WIyWlLk6GJQsqaUBKTNV-1" vertex="1">
          <mxGeometry x="1095" y="430" width="460" height="284" as="geometry" />
        </mxCell>
        <mxCell id="jNdyc2vnMrTo6YjB5sLs-3" value="+ type: ExternalAccountingPassportDocumentTypeEnum&#xa;+ series: string&#xa;+ number: int&#xa;+ issuedDate: DateTimeInterface&#xa;+ issuedBy: string&#xa;+ validUntil: DateTimeinterface;&#xa;+ photoInsertionDate: DateTimeInterface;&#xa;+ employee: EmployeeModel;&#xa;+ images: ImageModelCollection;&#xa;+ approved: ConfirmationEnum;&#xa;&#xa;&#xa;Â " style="text;strokeColor=none;fillColor=none;align=left;verticalAlign=top;spacingLeft=4;spacingRight=4;overflow=hidden;rotatable=0;points=[[0,0.5],[1,0.5]];portConstraint=eastwest;" parent="jNdyc2vnMrTo6YjB5sLs-2" vertex="1">
          <mxGeometry y="26" width="460" height="194" as="geometry" />
        </mxCell>
        <mxCell id="jNdyc2vnMrTo6YjB5sLs-4" value="" style="line;strokeWidth=1;fillColor=none;align=left;verticalAlign=middle;spacingTop=-1;spacingLeft=3;spacingRight=3;rotatable=0;labelPosition=right;points=[];portConstraint=eastwest;" parent="jNdyc2vnMrTo6YjB5sLs-2" vertex="1">
          <mxGeometry y="220" width="460" height="18" as="geometry" />
        </mxCell>
        <mxCell id="jNdyc2vnMrTo6YjB5sLs-5" value="+ ..." style="text;strokeColor=none;fillColor=none;align=left;verticalAlign=top;spacingLeft=4;spacingRight=4;overflow=hidden;rotatable=0;points=[[0,0.5],[1,0.5]];portConstraint=eastwest;" parent="jNdyc2vnMrTo6YjB5sLs-2" vertex="1">
          <mxGeometry y="238" width="460" height="46" as="geometry" />
        </mxCell>
        <mxCell id="jNdyc2vnMrTo6YjB5sLs-6" value="&lt;p style=&quot;margin: 0px ; margin-top: 4px ; text-align: center&quot;&gt;&lt;i&gt;&amp;lt;&amp;lt;PersonalModelInterface&amp;gt;&amp;gt;&lt;/i&gt;&lt;br&gt;&lt;br&gt;&lt;/p&gt;&lt;hr size=&quot;1&quot;&gt;&lt;p style=&quot;margin: 0px ; margin-left: 4px&quot;&gt;&lt;/p&gt;&lt;p style=&quot;margin: 0px ; margin-left: 4px&quot;&gt;+ getEmployee(): EmployeeModel&lt;br&gt;+ getImages(): ImageModelCollection&lt;/p&gt;&lt;p style=&quot;margin: 0px ; margin-left: 4px&quot;&gt;+ getApproved(): ConfirmationEnum&lt;/p&gt;&lt;p style=&quot;margin: 0px ; margin-left: 4px&quot;&gt;+ setApproved(ConfirmationEnum $confirmation&lt;span&gt;): PersonalModelInterface&lt;/span&gt;&lt;/p&gt;" style="verticalAlign=top;align=left;overflow=fill;fontSize=12;fontFamily=Helvetica;html=1;" parent="WIyWlLk6GJQsqaUBKTNV-1" vertex="1">
          <mxGeometry x="1120" y="220" width="410" height="110" as="geometry" />
        </mxCell>
        <mxCell id="jNdyc2vnMrTo6YjB5sLs-7" value="" style="endArrow=block;dashed=1;endFill=0;endSize=12;html=1;rounded=0;entryX=0.5;entryY=1;entryDx=0;entryDy=0;exitX=0.5;exitY=0;exitDx=0;exitDy=0;" parent="WIyWlLk6GJQsqaUBKTNV-1" source="jNdyc2vnMrTo6YjB5sLs-2" target="jNdyc2vnMrTo6YjB5sLs-6" edge="1">
          <mxGeometry width="160" relative="1" as="geometry">
            <mxPoint x="1015" y="560" as="sourcePoint" />
            <mxPoint x="1175" y="560" as="targetPoint" />
          </mxGeometry>
        </mxCell>
      </root>
    </mxGraphModel>
  </diagram>
</mxfile>
